<svg xmlns="http://www.w3.org/2000/svg" viewBox="0 0 64 64" fill="none" aria-hidden="true">
  <rect width="64" height="64" rx="14" fill="#0a0a0a"/>
  <g fill="#ffcd11">
    <!-- corpo + cabine + capô -->
    <path
      d="M14 30V18h9v6h7l9 4 3 8v6H14V30zm-2 14h40a2 2 0 0 1 2 2v2a2 2 0 0 1-2 2H12a2 2 0 0 1-2-2v-2a2 2 0 0 1 2-2z"
    />
    <!-- roda traseira -->
    <circle cx="21" cy="44" r="11"/>
    <!-- roda dianteira -->
    <circle cx="47" cy="45" r="7.5"/>
  </g>
  <circle cx="21" cy="44" r="4" fill="#0a0a0a"/>
  <circle cx="47" cy="45" r="3" fill="#0a0a0a"/>
</svg>
